# Blender v2.92.0 OBJ File: 'Card.blend'
# www.blender.org
mtllib Card.mtl
o Card
v -0.236200 0.002400 0.444500
v -0.280000 0.002400 0.400700
v -0.245946 0.002400 0.443402
v -0.255204 0.002400 0.440162
v -0.263509 0.002400 0.434944
v -0.270444 0.002400 0.428009
v -0.275662 0.002400 0.419704
v -0.278902 0.002400 0.410446
v 0.280000 0.002400 0.400700
v 0.236200 0.002400 0.444500
v 0.278902 0.002400 0.410446
v 0.275662 0.002400 0.419704
v 0.270444 0.002400 0.428009
v 0.263509 0.002400 0.434944
v 0.255204 0.002400 0.440162
v 0.245946 0.002400 0.443402
v -0.236200 0.002400 -0.444500
v -0.280000 0.002400 -0.400700
v -0.245946 0.002400 -0.443402
v -0.255204 0.002400 -0.440162
v -0.263509 0.002400 -0.434944
v -0.270444 0.002400 -0.428009
v -0.275662 0.002400 -0.419704
v -0.278902 0.002400 -0.410446
v 0.236200 0.002400 -0.444500
v 0.280000 0.002400 -0.400700
v 0.245946 0.002400 -0.443402
v 0.255204 0.002400 -0.440162
v 0.263509 0.002400 -0.434944
v 0.270444 0.002400 -0.428009
v 0.275662 0.002400 -0.419704
v 0.278902 0.002400 -0.410446
v -0.236200 0.000000 0.444500
v -0.280000 0.000000 0.400700
v -0.245946 0.000000 0.443402
v -0.255204 0.000000 0.440162
v -0.263509 0.000000 0.434944
v -0.270444 0.000000 0.428009
v -0.275662 0.000000 0.419704
v -0.278902 0.000000 0.410446
v 0.280000 0.000000 0.400700
v 0.236200 0.000000 0.444500
v 0.278902 0.000000 0.410446
v 0.275662 0.000000 0.419704
v 0.270444 0.000000 0.428009
v 0.263509 0.000000 0.434944
v 0.255204 0.000000 0.440162
v 0.245946 0.000000 0.443402
v -0.236200 0.000000 -0.444500
v -0.280000 0.000000 -0.400700
v -0.245946 0.000000 -0.443402
v -0.255204 0.000000 -0.440162
v -0.263509 0.000000 -0.434944
v -0.270444 0.000000 -0.428009
v -0.275662 0.000000 -0.419704
v -0.278902 0.000000 -0.410446
v 0.236200 0.000000 -0.444500
v 0.280000 0.000000 -0.400700
v 0.245946 0.000000 -0.443402
v 0.255204 0.000000 -0.440162
v 0.263509 0.000000 -0.434944
v 0.270444 0.000000 -0.428009
v 0.275662 0.000000 -0.419704
v 0.278902 0.000000 -0.410446
vt 0.980320 0.951977
vt 0.979393 0.960204
vt 0.976659 0.968018
vt 0.972254 0.975028
vt 0.966400 0.980881
vt 0.959390 0.985286
vt 0.951576 0.988020
vt 0.943350 0.988947
vt 0.544611 0.988947
vt 0.536384 0.988020
vt 0.528570 0.985286
vt 0.521560 0.980881
vt 0.515706 0.975028
vt 0.511302 0.968018
vt 0.508567 0.960204
vt 0.507640 0.951977
vt 0.507640 0.275539
vt 0.508567 0.267312
vt 0.511302 0.259498
vt 0.515706 0.252488
vt 0.521560 0.246634
vt 0.528570 0.242230
vt 0.536384 0.239496
vt 0.544611 0.238569
vt 0.943350 0.238569
vt 0.951576 0.239496
vt 0.959390 0.242230
vt 0.966400 0.246634
vt 0.972254 0.252488
vt 0.976659 0.259498
vt 0.979393 0.267312
vt 0.980320 0.275539
vt 0.027181 0.951977
vt 0.027181 0.275539
vt 0.028108 0.267312
vt 0.030842 0.259498
vt 0.035247 0.252488
vt 0.041101 0.246634
vt 0.048111 0.242230
vt 0.055925 0.239496
vt 0.064152 0.238569
vt 0.462890 0.238569
vt 0.471117 0.239496
vt 0.478931 0.242230
vt 0.485941 0.246634
vt 0.491795 0.252488
vt 0.496199 0.259498
vt 0.498934 0.267312
vt 0.499861 0.275539
vt 0.499861 0.951977
vt 0.498934 0.960204
vt 0.496199 0.968018
vt 0.491795 0.975028
vt 0.485941 0.980881
vt 0.478931 0.985286
vt 0.471117 0.988020
vt 0.462890 0.988947
vt 0.064151 0.988947
vt 0.055925 0.988020
vt 0.048111 0.985286
vt 0.041101 0.980881
vt 0.035247 0.975028
vt 0.030842 0.968018
vt 0.028108 0.960204
vt 0.043281 0.018295
vt 0.699969 0.018295
vt 0.699969 0.020341
vt 0.043281 0.020341
vt 0.035037 0.018295
vt 0.035037 0.020341
vt 0.026692 0.018295
vt 0.026692 0.020341
vt 0.018663 0.018295
vt 0.018663 0.020341
vt 0.011354 0.018295
vt 0.011354 0.020341
vt 0.005131 0.018295
vt 0.005131 0.020341
vt 0.728967 0.028196
vt 0.734774 0.028196
vt 0.734774 0.030242
vt 0.728967 0.030242
vt 0.721967 0.028196
vt 0.721967 0.030242
vt 0.362314 0.028196
vt 0.362314 0.030242
vt 0.354473 0.028196
vt 0.354473 0.030242
vt 0.346183 0.028197
vt 0.346183 0.030242
vt 0.337861 0.028196
vt 0.337861 0.030242
vt 0.329924 0.028196
vt 0.329924 0.030242
vt 0.322769 0.028196
vt 0.322769 0.030242
vt 0.316756 0.028197
vt 0.316756 0.030242
vt 0.312186 0.028196
vt 0.312186 0.030242
vt 0.005131 0.028196
vt 0.005131 0.030242
vt 0.009701 0.010439
vt 0.005131 0.010440
vt 0.005131 0.008394
vt 0.009701 0.008394
vt 0.015715 0.010440
vt 0.015715 0.008394
vt 0.022869 0.010440
vt 0.022869 0.008394
vt 0.030807 0.010440
vt 0.030807 0.008394
vt 0.039129 0.010439
vt 0.039129 0.008394
vt 0.047418 0.010440
vt 0.047418 0.008394
vt 0.055259 0.010440
vt 0.055259 0.008394
vt 0.414913 0.010440
vt 0.414913 0.008394
vt 0.421912 0.010440
vt 0.421912 0.008394
vt 0.427719 0.010439
vt 0.427719 0.008394
vt 0.432042 0.010440
vt 0.432042 0.008394
vt 0.720107 0.018295
vt 0.724164 0.018295
vt 0.724164 0.020341
vt 0.720107 0.020341
vt 0.714525 0.018295
vt 0.714525 0.020341
vt 0.707698 0.018295
vt 0.707698 0.020341
vn 0.0000 1.0000 -0.0000
vn 0.0000 -1.0000 0.0000
vn -1.0000 0.0000 0.0000
vn -0.9937 0.0000 0.1120
vn -0.9439 0.0000 0.3303
vn -0.8467 0.0000 0.5320
vn -0.7071 0.0000 0.7071
vn -0.5320 0.0000 0.8467
vn -0.3303 0.0000 0.9439
vn -0.1120 0.0000 0.9937
vn 0.0000 0.0000 1.0000
vn 0.1120 0.0000 0.9937
vn 0.3303 0.0000 0.9439
vn 0.5320 0.0000 0.8467
vn 0.7071 0.0000 0.7071
vn 0.8467 0.0000 0.5320
vn 0.9439 0.0000 0.3303
vn 0.9937 0.0000 0.1120
vn 1.0000 0.0000 0.0000
vn 0.9937 0.0000 -0.1120
vn 0.9439 0.0000 -0.3303
vn 0.8467 0.0000 -0.5320
vn 0.7071 0.0000 -0.7071
vn 0.5320 0.0000 -0.8467
vn 0.3303 0.0000 -0.9439
vn 0.1120 0.0000 -0.9937
vn 0.0000 0.0000 -1.0000
vn -0.1120 0.0000 -0.9937
vn -0.3303 0.0000 -0.9439
vn -0.5320 0.0000 -0.8467
vn -0.7071 0.0000 -0.7071
vn -0.8467 0.0000 -0.5320
vn -0.9439 0.0000 -0.3303
vn -0.9937 0.0000 -0.1120
usemtl Card
s off
f 2/1/1 8/2/1 7/3/1 6/4/1 5/5/1 4/6/1 3/7/1 1/8/1 10/9/1 16/10/1 15/11/1 14/12/1 13/13/1 12/14/1 11/15/1 9/16/1 26/17/1 32/18/1 31/19/1 30/20/1 29/21/1 28/22/1 27/23/1 25/24/1 17/25/1 19/26/1 20/27/1 21/28/1 22/29/1 23/30/1 24/31/1 18/32/1
f 34/33/2 50/34/2 56/35/2 55/36/2 54/37/2 53/38/2 52/39/2 51/40/2 49/41/2 57/42/2 59/43/2 60/44/2 61/45/2 62/46/2 63/47/2 64/48/2 58/49/2 41/50/2 43/51/2 44/52/2 45/53/2 46/54/2 47/55/2 48/56/2 42/57/2 33/58/2 35/59/2 36/60/2 37/61/2 38/62/2 39/63/2 40/64/2
f 2/65/3 18/66/3 50/67/3 34/68/3
f 8/69/4 2/65/4 34/68/4 40/70/4
f 7/71/5 8/69/5 40/70/5 39/72/5
f 6/73/6 7/71/6 39/72/6 38/74/6
f 5/75/7 6/73/7 38/74/7 37/76/7
f 4/77/8 5/75/8 37/76/8 36/78/8
f 3/79/9 4/80/9 36/81/9 35/82/9
f 1/83/10 3/79/10 35/82/10 33/84/10
f 10/85/11 1/83/11 33/84/11 42/86/11
f 16/87/12 10/85/12 42/86/12 48/88/12
f 15/89/13 16/87/13 48/88/13 47/90/13
f 14/91/14 15/89/14 47/90/14 46/92/14
f 13/93/15 14/91/15 46/92/15 45/94/15
f 12/95/16 13/93/16 45/94/16 44/96/16
f 11/97/17 12/95/17 44/96/17 43/98/17
f 9/99/18 11/97/18 43/98/18 41/100/18
f 26/101/19 9/99/19 41/100/19 58/102/19
f 32/103/20 26/104/20 58/105/20 64/106/20
f 31/107/21 32/103/21 64/106/21 63/108/21
f 30/109/22 31/107/22 63/108/22 62/110/22
f 29/111/23 30/109/23 62/110/23 61/112/23
f 28/113/24 29/111/24 61/112/24 60/114/24
f 27/115/25 28/113/25 60/114/25 59/116/25
f 25/117/26 27/115/26 59/116/26 57/118/26
f 17/119/27 25/117/27 57/118/27 49/120/27
f 19/121/28 17/119/28 49/120/28 51/122/28
f 20/123/29 19/121/29 51/122/29 52/124/29
f 21/125/30 20/123/30 52/124/30 53/126/30
f 22/127/31 21/128/31 53/129/31 54/130/31
f 23/131/32 22/127/32 54/130/32 55/132/32
f 24/133/33 23/131/33 55/132/33 56/134/33
f 18/66/34 24/133/34 56/134/34 50/67/34
